<svg xmlns="http://www.w3.org/2000/svg" viewBox="0 0 5048.66 1091.52"><defs><style>.cls-1{fill:#fff;}.cls-2,.cls-4{fill:#0a0a0a;}.cls-3{fill:#05f240;}.cls-4{font-size:487.76px;font-family:SFProDisplay-Medium, SF Pro Display;font-weight:500;}.cls-5{letter-spacing:-0.01em;}</style></defs><title>DCAsset 9</title><g id="Layer_2" data-name="Layer 2"><g id="Layer_1-2" data-name="Layer 1"><rect class="cls-1" width="5048.66" height="1091.52"/><path class="cls-2" d="M803.9,265.55a9.12,9.12,0,0,0-9.43-9.06C638.39,261.4,514.39,389,514.39,545.76S638.9,830.05,794.38,835a9.13,9.13,0,0,0,9.44-9.09C803.87,757.77,804.19,333.58,803.9,265.55Z"/><path class="cls-3" d="M225.07,265.55a9.12,9.12,0,0,1,9.43-9.06C390.58,261.4,514.58,389,514.58,545.76S390.07,830.05,234.59,835a9.12,9.12,0,0,1-9.43-9.09C225.1,757.77,224.78,333.58,225.07,265.55Z"/><text class="cls-4" transform="translate(1008.98 705.09)">thedudetha<tspan class="cls-5" x="2442.59" y="0">t</tspan><tspan x="2593.11" y="0">code</tspan></text><circle class="cls-3" cx="4769" cy="646.16" r="55.02"/></g></g></svg>