<svg xmlns="http://www.w3.org/2000/svg" viewBox="0 0 618.79 618.23"><defs><style>.cls-1{fill:#0a0a0a;}.cls-2{fill:#05f240;}</style></defs><title>DCAsset 11</title><g id="Layer_2" data-name="Layer 2"><g id="Layer_1-2" data-name="Layer 1"><path class="cls-1" d="M618.66,9.68A9.75,9.75,0,0,0,608.58,0C441.8,5.26,309.29,141.64,309.29,309.12s133.06,303.79,299.2,309.1a9.73,9.73,0,0,0,10.08-9.71C618.63,535.67,619,82.39,618.66,9.68Z"/><path class="cls-2" d="M.13,9.68A9.75,9.75,0,0,1,10.21,0C177,5.26,309.49,141.64,309.49,309.12s-133,303.79-299.19,309.1A9.73,9.73,0,0,1,.22,608.51C.16,535.67-.18,82.39.13,9.68Z"/></g></g></svg>